<svg xmlns="http://www.w3.org/2000/svg" viewBox="0 0 48 48" fill="none">
  <!-- Pixel art fried egg — 48x48 grid -->

  <!-- === Egg white (irregular blobby shape) === -->
  <rect x="16" y="36" width="2" height="2" fill="#fafaf9"/>
  <rect x="18" y="36" width="2" height="2" fill="#e7e5e4"/>
  <rect x="20" y="36" width="2" height="2" fill="#fafaf9"/>
  <rect x="22" y="36" width="2" height="2" fill="#e7e5e4"/>
  <rect x="24" y="36" width="2" height="2" fill="#fafaf9"/>

  <rect x="12" y="34" width="2" height="2" fill="#fafaf9"/>
  <rect x="14" y="34" width="2" height="2" fill="#e7e5e4"/>
  <rect x="16" y="34" width="2" height="2" fill="#fafaf9"/>
  <rect x="18" y="34" width="2" height="2" fill="#fafaf9"/>
  <rect x="20" y="34" width="2" height="2" fill="#e7e5e4"/>
  <rect x="22" y="34" width="2" height="2" fill="#fafaf9"/>
  <rect x="24" y="34" width="2" height="2" fill="#fafaf9"/>
  <rect x="26" y="34" width="2" height="2" fill="#e7e5e4"/>
  <rect x="28" y="34" width="2" height="2" fill="#fafaf9"/>

  <rect x="10" y="32" width="2" height="2" fill="#e7e5e4"/>
  <rect x="12" y="32" width="2" height="2" fill="#fafaf9"/>
  <rect x="14" y="32" width="2" height="2" fill="#fafaf9"/>
  <rect x="16" y="32" width="2" height="2" fill="#e7e5e4"/>
  <rect x="18" y="32" width="2" height="2" fill="#fafaf9"/>
  <rect x="20" y="32" width="2" height="2" fill="#fafaf9"/>
  <rect x="22" y="32" width="2" height="2" fill="#fafaf9"/>
  <rect x="24" y="32" width="2" height="2" fill="#e7e5e4"/>
  <rect x="26" y="32" width="2" height="2" fill="#fafaf9"/>
  <rect x="28" y="32" width="2" height="2" fill="#fafaf9"/>
  <rect x="30" y="32" width="2" height="2" fill="#e7e5e4"/>

  <rect x="8" y="30" width="2" height="2" fill="#fafaf9"/>
  <rect x="10" y="30" width="2" height="2" fill="#fafaf9"/>
  <rect x="12" y="30" width="2" height="2" fill="#e7e5e4"/>
  <rect x="14" y="30" width="2" height="2" fill="#fafaf9"/>
  <rect x="16" y="30" width="2" height="2" fill="#fafaf9"/>
  <rect x="18" y="30" width="2" height="2" fill="#fafaf9"/>
  <rect x="20" y="30" width="2" height="2" fill="#fafaf9"/>
  <rect x="22" y="30" width="2" height="2" fill="#fafaf9"/>
  <rect x="24" y="30" width="2" height="2" fill="#fafaf9"/>
  <rect x="26" y="30" width="2" height="2" fill="#fafaf9"/>
  <rect x="28" y="30" width="2" height="2" fill="#e7e5e4"/>
  <rect x="30" y="30" width="2" height="2" fill="#fafaf9"/>
  <rect x="32" y="30" width="2" height="2" fill="#fafaf9"/>

  <rect x="6" y="28" width="2" height="2" fill="#e7e5e4"/>
  <rect x="8" y="28" width="2" height="2" fill="#fafaf9"/>
  <rect x="10" y="28" width="2" height="2" fill="#fafaf9"/>
  <rect x="12" y="28" width="2" height="2" fill="#fafaf9"/>
  <rect x="14" y="28" width="2" height="2" fill="#fafaf9"/>
  <rect x="16" y="28" width="2" height="2" fill="#fafaf9"/>
  <rect x="18" y="28" width="2" height="2" fill="#fafaf9"/>
  <rect x="20" y="28" width="2" height="2" fill="#fafaf9"/>
  <rect x="22" y="28" width="2" height="2" fill="#fafaf9"/>
  <rect x="24" y="28" width="2" height="2" fill="#fafaf9"/>
  <rect x="26" y="28" width="2" height="2" fill="#fafaf9"/>
  <rect x="28" y="28" width="2" height="2" fill="#fafaf9"/>
  <rect x="30" y="28" width="2" height="2" fill="#fafaf9"/>
  <rect x="32" y="28" width="2" height="2" fill="#e7e5e4"/>
  <rect x="34" y="28" width="2" height="2" fill="#fafaf9"/>

  <rect x="6" y="26" width="2" height="2" fill="#fafaf9"/>
  <rect x="8" y="26" width="2" height="2" fill="#fafaf9"/>
  <rect x="10" y="26" width="2" height="2" fill="#e7e5e4"/>
  <rect x="12" y="26" width="2" height="2" fill="#fafaf9"/>
  <rect x="14" y="26" width="2" height="2" fill="#fafaf9"/>
  <rect x="16" y="26" width="2" height="2" fill="#fafaf9"/>
  <rect x="18" y="26" width="2" height="2" fill="#fafaf9"/>
  <rect x="20" y="26" width="2" height="2" fill="#fafaf9"/>
  <rect x="22" y="26" width="2" height="2" fill="#fafaf9"/>
  <rect x="24" y="26" width="2" height="2" fill="#fafaf9"/>
  <rect x="26" y="26" width="2" height="2" fill="#fafaf9"/>
  <rect x="28" y="26" width="2" height="2" fill="#e7e5e4"/>
  <rect x="30" y="26" width="2" height="2" fill="#fafaf9"/>
  <rect x="32" y="26" width="2" height="2" fill="#fafaf9"/>
  <rect x="34" y="26" width="2" height="2" fill="#e7e5e4"/>
  <rect x="36" y="26" width="2" height="2" fill="#fafaf9"/>

  <rect x="8" y="24" width="2" height="2" fill="#e7e5e4"/>
  <rect x="10" y="24" width="2" height="2" fill="#fafaf9"/>
  <rect x="12" y="24" width="2" height="2" fill="#fafaf9"/>
  <rect x="14" y="24" width="2" height="2" fill="#fafaf9"/>
  <rect x="16" y="24" width="2" height="2" fill="#fafaf9"/>
  <rect x="18" y="24" width="2" height="2" fill="#fafaf9"/>
  <rect x="20" y="24" width="2" height="2" fill="#fafaf9"/>
  <rect x="22" y="24" width="2" height="2" fill="#fafaf9"/>
  <rect x="24" y="24" width="2" height="2" fill="#fafaf9"/>
  <rect x="26" y="24" width="2" height="2" fill="#fafaf9"/>
  <rect x="28" y="24" width="2" height="2" fill="#fafaf9"/>
  <rect x="30" y="24" width="2" height="2" fill="#e7e5e4"/>
  <rect x="32" y="24" width="2" height="2" fill="#fafaf9"/>
  <rect x="34" y="24" width="2" height="2" fill="#fafaf9"/>
  <rect x="36" y="24" width="2" height="2" fill="#fafaf9"/>

  <rect x="8" y="22" width="2" height="2" fill="#fafaf9"/>
  <rect x="10" y="22" width="2" height="2" fill="#fafaf9"/>
  <rect x="12" y="22" width="2" height="2" fill="#fafaf9"/>
  <rect x="14" y="22" width="2" height="2" fill="#fafaf9"/>
  <rect x="16" y="22" width="2" height="2" fill="#fafaf9"/>
  <rect x="18" y="22" width="2" height="2" fill="#fafaf9"/>
  <rect x="20" y="22" width="2" height="2" fill="#fafaf9"/>
  <rect x="22" y="22" width="2" height="2" fill="#fafaf9"/>
  <rect x="24" y="22" width="2" height="2" fill="#fafaf9"/>
  <rect x="26" y="22" width="2" height="2" fill="#fafaf9"/>
  <rect x="28" y="22" width="2" height="2" fill="#fafaf9"/>
  <rect x="30" y="22" width="2" height="2" fill="#fafaf9"/>
  <rect x="32" y="22" width="2" height="2" fill="#e7e5e4"/>
  <rect x="34" y="22" width="2" height="2" fill="#fafaf9"/>

  <rect x="10" y="20" width="2" height="2" fill="#e7e5e4"/>
  <rect x="12" y="20" width="2" height="2" fill="#fafaf9"/>
  <rect x="14" y="20" width="2" height="2" fill="#fafaf9"/>
  <rect x="16" y="20" width="2" height="2" fill="#fafaf9"/>
  <rect x="18" y="20" width="2" height="2" fill="#fafaf9"/>
  <rect x="20" y="20" width="2" height="2" fill="#fafaf9"/>
  <rect x="22" y="20" width="2" height="2" fill="#fafaf9"/>
  <rect x="24" y="20" width="2" height="2" fill="#fafaf9"/>
  <rect x="26" y="20" width="2" height="2" fill="#fafaf9"/>
  <rect x="28" y="20" width="2" height="2" fill="#fafaf9"/>
  <rect x="30" y="20" width="2" height="2" fill="#fafaf9"/>
  <rect x="32" y="20" width="2" height="2" fill="#fafaf9"/>

  <rect x="12" y="18" width="2" height="2" fill="#fafaf9"/>
  <rect x="14" y="18" width="2" height="2" fill="#fafaf9"/>
  <rect x="16" y="18" width="2" height="2" fill="#fafaf9"/>
  <rect x="18" y="18" width="2" height="2" fill="#fafaf9"/>
  <rect x="20" y="18" width="2" height="2" fill="#fafaf9"/>
  <rect x="22" y="18" width="2" height="2" fill="#fafaf9"/>
  <rect x="24" y="18" width="2" height="2" fill="#e7e5e4"/>
  <rect x="26" y="18" width="2" height="2" fill="#fafaf9"/>
  <rect x="28" y="18" width="2" height="2" fill="#fafaf9"/>
  <rect x="30" y="18" width="2" height="2" fill="#e7e5e4"/>

  <rect x="14" y="16" width="2" height="2" fill="#e7e5e4"/>
  <rect x="16" y="16" width="2" height="2" fill="#fafaf9"/>
  <rect x="18" y="16" width="2" height="2" fill="#fafaf9"/>
  <rect x="20" y="16" width="2" height="2" fill="#fafaf9"/>
  <rect x="22" y="16" width="2" height="2" fill="#fafaf9"/>
  <rect x="24" y="16" width="2" height="2" fill="#fafaf9"/>
  <rect x="26" y="16" width="2" height="2" fill="#fafaf9"/>
  <rect x="28" y="16" width="2" height="2" fill="#fafaf9"/>

  <rect x="16" y="14" width="2" height="2" fill="#fafaf9"/>
  <rect x="18" y="14" width="2" height="2" fill="#e7e5e4"/>
  <rect x="20" y="14" width="2" height="2" fill="#fafaf9"/>
  <rect x="22" y="14" width="2" height="2" fill="#fafaf9"/>
  <rect x="24" y="14" width="2" height="2" fill="#fafaf9"/>
  <rect x="26" y="14" width="2" height="2" fill="#e7e5e4"/>

  <rect x="18" y="12" width="2" height="2" fill="#fafaf9"/>
  <rect x="20" y="12" width="2" height="2" fill="#fafaf9"/>
  <rect x="22" y="12" width="2" height="2" fill="#e7e5e4"/>
  <rect x="24" y="12" width="2" height="2" fill="#fafaf9"/>

  <!-- === Yolk (golden circle, offset slightly) === -->
  <rect x="16" y="28" width="2" height="2" fill="#d97706"/>
  <rect x="18" y="28" width="2" height="2" fill="#f59e0b"/>
  <rect x="20" y="28" width="2" height="2" fill="#f59e0b"/>
  <rect x="22" y="28" width="2" height="2" fill="#d97706"/>

  <rect x="14" y="26" width="2" height="2" fill="#d97706"/>
  <rect x="16" y="26" width="2" height="2" fill="#f59e0b"/>
  <rect x="18" y="26" width="2" height="2" fill="#fbbf24"/>
  <rect x="20" y="26" width="2" height="2" fill="#fbbf24"/>
  <rect x="22" y="26" width="2" height="2" fill="#f59e0b"/>
  <rect x="24" y="26" width="2" height="2" fill="#d97706"/>

  <rect x="14" y="24" width="2" height="2" fill="#d97706"/>
  <rect x="16" y="24" width="2" height="2" fill="#fbbf24"/>
  <rect x="18" y="24" width="2" height="2" fill="#fde68a"/>
  <rect x="20" y="24" width="2" height="2" fill="#fbbf24"/>
  <rect x="22" y="24" width="2" height="2" fill="#fbbf24"/>
  <rect x="24" y="24" width="2" height="2" fill="#d97706"/>

  <rect x="14" y="22" width="2" height="2" fill="#d97706"/>
  <rect x="16" y="22" width="2" height="2" fill="#f59e0b"/>
  <rect x="18" y="22" width="2" height="2" fill="#fbbf24"/>
  <rect x="20" y="22" width="2" height="2" fill="#fbbf24"/>
  <rect x="22" y="22" width="2" height="2" fill="#f59e0b"/>
  <rect x="24" y="22" width="2" height="2" fill="#d97706"/>

  <rect x="16" y="20" width="2" height="2" fill="#d97706"/>
  <rect x="18" y="20" width="2" height="2" fill="#f59e0b"/>
  <rect x="20" y="20" width="2" height="2" fill="#f59e0b"/>
  <rect x="22" y="20" width="2" height="2" fill="#d97706"/>

  <!-- Yolk highlight -->
  <rect x="18" y="24" width="2" height="2" fill="#fef3c7" opacity="0.6"/>
  <rect x="16" y="24" width="2" height="2" fill="#fde68a" opacity="0.4"/>

  <!-- === Crispy brown edges === -->
  <rect x="14" y="34" width="2" height="2" fill="#d6d3d1"/>
  <rect x="26" y="34" width="2" height="2" fill="#d6d3d1"/>
  <rect x="10" y="30" width="2" height="2" fill="#d6d3d1"/>
  <rect x="30" y="30" width="2" height="2" fill="#d6d3d1"/>
  <rect x="34" y="26" width="2" height="2" fill="#d6d3d1"/>
  <rect x="6" y="26" width="2" height="2" fill="#d6d3d1"/>
  <rect x="32" y="22" width="2" height="2" fill="#d6d3d1"/>
  <rect x="30" y="18" width="2" height="2" fill="#d6d3d1"/>
  <rect x="12" y="18" width="2" height="2" fill="#d6d3d1"/>

  <!-- === Steam wisps === -->
  <rect x="15" y="10" width="1" height="1" fill="#a8a29e" opacity="0.3"/>
  <rect x="15" y="8" width="1" height="1" fill="#a8a29e" opacity="0.2"/>
  <rect x="21" y="9" width="1" height="1" fill="#a8a29e" opacity="0.25"/>
  <rect x="21" y="7" width="1" height="1" fill="#a8a29e" opacity="0.15"/>
  <rect x="27" y="10" width="1" height="1" fill="#a8a29e" opacity="0.3"/>
  <rect x="27" y="8" width="1" height="1" fill="#a8a29e" opacity="0.2"/>
</svg>
